HIERARCHY
ROOT joint_Root
{
	OFFSET 0.0 0.0 0.0
	CHANNELS 6 Xposition Yposition Zposition Zrotation Xrotation Yrotation 
	JOINT Hips
	{
		OFFSET -0.726466 93.3139 -2.00062
		CHANNELS 6 Xposition Yposition Zposition Zrotation Xrotation Yrotation 
		JOINT Spine
		{
			OFFSET 15.7357 0.0 0.0
			CHANNELS 6 Xposition Yposition Zposition Zrotation Xrotation Yrotation 
			JOINT Chest
			{
				OFFSET 8.98455 -0.406207 0.0
				CHANNELS 6 Xposition Yposition Zposition Zrotation Xrotation Yrotation 
				JOINT Neck
				{
					OFFSET 16.3773 0.0 0.0
					CHANNELS 6 Xposition Yposition Zposition Zrotation Xrotation Yrotation 
					JOINT Head
					{
						OFFSET 6.45672 0.0 0.0
						CHANNELS 6 Xposition Yposition Zposition Zrotation Xrotation Yrotation 
						End Site
						{
							OFFSET 0.0 0.0 0.0
						}
					}
				}
				JOINT Shoulder_L
				{
					OFFSET 12.9942 -0.242716 4.98039
					CHANNELS 6 Xposition Yposition Zposition Zrotation Xrotation Yrotation 
					JOINT UpperArm_L
					{
						OFFSET 5.34809 0.0 0.0
						CHANNELS 6 Xposition Yposition Zposition Zrotation Xrotation Yrotation 
						JOINT LowerArm_L
						{
							OFFSET 24.3286 1.87007e-05 0.0
							CHANNELS 6 Xposition Yposition Zposition Zrotation Xrotation Yrotation 
							JOINT Hand_L
							{
								OFFSET 22.2916 0.0 0.0
								CHANNELS 6 Xposition Yposition Zposition Zrotation Xrotation Yrotation 
								End Site
								{
									OFFSET 0.0 0.0 0.0
								}
							}
						}
					}
				}
				JOINT Shoulder_R
				{
					OFFSET 12.9945 -0.242716 -4.98039
					CHANNELS 6 Xposition Yposition Zposition Zrotation Xrotation Yrotation 
					JOINT UpperArm_R
					{
						OFFSET -5.34813 0.0 0.0
						CHANNELS 6 Xposition Yposition Zposition Zrotation Xrotation Yrotation 
						JOINT LowerArm_R
						{
							OFFSET -24.3289 0.000322201 0.0
							CHANNELS 6 Xposition Yposition Zposition Zrotation Xrotation Yrotation 
							JOINT Hand_R
							{
								OFFSET -22.2915 -0.000108084 0.0
								CHANNELS 6 Xposition Yposition Zposition Zrotation Xrotation Yrotation 
								End Site
								{
									OFFSET 0.0 0.0 0.0
								}
							}
						}
					}
				}
			}
		}
		JOINT UpperLeg_L
		{
			OFFSET -2.19248 -6.46944 0.0
			CHANNELS 6 Xposition Yposition Zposition Zrotation Xrotation Yrotation 
			JOINT LowerLeg_L
			{
				OFFSET 39.0811 0.0 -1.23785e-05
				CHANNELS 6 Xposition Yposition Zposition Zrotation Xrotation Yrotation 
				JOINT Foot_L
				{
					OFFSET 40.9854 0.0 -1.26872e-05
					CHANNELS 6 Xposition Yposition Zposition Zrotation Xrotation Yrotation 
					JOINT Toes_L
					{
						OFFSET 11.7543 0.0 0.0
						CHANNELS 6 Xposition Yposition Zposition Zrotation Xrotation Yrotation 
						End Site
						{
							OFFSET 0.0 0.0 0.0
						}
					}
				}
			}
		}
		JOINT UpperLeg_R
		{
			OFFSET -2.19251 6.46944 0.0
			CHANNELS 6 Xposition Yposition Zposition Zrotation Xrotation Yrotation 
			JOINT LowerLeg_R
			{
				OFFSET -39.0811 -0.00228153 -0.0401928
				CHANNELS 6 Xposition Yposition Zposition Zrotation Xrotation Yrotation 
				JOINT Foot_R
				{
					OFFSET -40.9854 0.0 0.0
					CHANNELS 6 Xposition Yposition Zposition Zrotation Xrotation Yrotation 
					JOINT Toes_R
					{
						OFFSET -11.7543 0.0 0.0
						CHANNELS 6 Xposition Yposition Zposition Zrotation Xrotation Yrotation 
						End Site
						{
							OFFSET 0.0 0.0 0.0
						}
					}
				}
			}
		}
	}
}
MOTION
Frames:	9
Frame Time:	0.0333333
0.000000 0.000000 0.000000 0.000000 0.000000 -0.000000 -1.729200 92.421400 -1.738100 88.027900 -0.427704 3.170870 15.735700 0.000005 -0.000001 84.889800 85.402400 -84.479200 8.984550 -0.406207 -0.000000 1.395910 -0.841445 0.830627 16.377300 -0.000001 -0.000001 3.295550 -2.801120 1.064430 6.456720 -0.000001 -0.000000 4.946220 -3.366290 -1.084500 12.994200 -0.242716 4.980390 -89.933100 -0.210559 -72.365400 5.348090 -0.000007 -0.000001 -67.060300 42.441600 -15.355100 24.328600 0.000019 0.000005 1.037850 2.403940 -23.358800 22.291600 -0.000001 0.000005 4.329790 5.513230 -7.076000 12.994500 -0.242716 -4.980390 88.078100 6.432770 -73.326300 -5.348130 -0.000001 -0.000004 -65.413700 38.889800 -16.132000 -24.328900 0.000322 -0.000009 2.726700 7.015050 -21.311300 -22.291500 -0.000108 -0.000004 7.040610 5.370870 -2.013290 -2.192480 -6.469440 -0.000000 -175.080000 -4.824760 -3.520320 39.081100 -0.000007 -0.000012 -0.096130 0.236865 22.089400 40.985400 -0.000006 -0.000013 -0.791407 3.803650 -65.639100 11.754300 -0.000000 0.000003 -0.000050 -0.000563 -16.599400 -2.192510 6.469440 -0.000001 -179.046000 14.460800 179.605000 -39.081100 -0.002282 -0.040193 0.015465 -0.036186 18.547800 -40.985400 0.000008 0.000006 5.661320 6.504650 -65.887800 -11.754300 -0.000006 -0.000006 -0.005937 -0.070261 -19.432500
0.000000 0.000000 0.000000 0.000000 0.000000 -0.000000 -1.736040 92.411300 -1.729600 88.024100 -0.328771 3.155910 15.735700 0.000005 -0.000001 84.665000 85.411400 -84.305200 8.984550 -0.406207 -0.000000 1.374390 -0.872939 0.729510 16.377300 -0.000001 -0.000001 3.248950 -2.793070 1.057110 6.456720 -0.000001 -0.000000 4.946480 -3.347110 -0.997376 12.994200 -0.242716 4.980390 -89.916500 -0.261607 -72.297100 5.348090 -0.000007 -0.000001 -67.106700 42.349700 -15.302800 24.328600 0.000019 0.000005 1.039620 2.410960 -23.333500 22.291600 -0.000001 0.000005 4.298310 5.512750 -7.055990 12.994500 -0.242716 -4.980390 88.035500 6.509810 -73.167000 -5.348130 -0.000001 -0.000004 -65.881200 37.285300 -15.088000 -24.328900 0.000322 -0.000009 2.829470 6.262770 -24.382200 -22.291500 -0.000108 -0.000004 5.958970 5.370020 -1.986410 -2.192480 -6.469440 -0.000000 -175.063000 -4.778020 -3.583530 39.081100 -0.000007 -0.000012 -0.098490 0.241768 22.164800 40.985400 -0.000006 -0.000013 -0.796527 3.837350 -65.671900 11.754300 -0.000000 0.000003 -0.000043 -0.000501 -16.597000 -2.192510 6.469440 -0.000001 -179.052000 14.531900 179.563000 -39.081100 -0.002282 -0.040193 0.012614 -0.027579 18.616800 -40.985400 0.000008 0.000006 5.622500 6.486120 -65.923400 -11.754300 -0.000006 -0.000006 -0.005991 -0.070749 -19.452500
0.000000 0.000000 0.000000 0.000000 0.000000 -0.000000 -1.736170 92.418700 -1.719670 88.051700 -0.230483 3.165830 15.735700 0.000005 -0.000001 84.065700 85.423900 -83.780400 8.984550 -0.406207 -0.000000 1.339710 -0.961767 0.581325 16.377300 -0.000001 -0.000001 3.236110 -2.783650 0.962605 6.456720 -0.000001 -0.000000 5.023680 -3.280100 -0.768948 12.994200 -0.242716 4.980390 -89.880400 -0.373226 -72.233200 5.348090 -0.000007 -0.000001 -67.301000 42.085900 -15.132100 24.328600 0.000019 0.000005 1.065240 2.473490 -23.307800 22.291600 -0.000001 0.000005 4.234180 5.511070 -6.986150 12.994500 -0.242716 -4.980390 87.974600 6.592150 -72.878200 -5.348130 -0.000001 -0.000004 -66.050100 34.783100 -14.520100 -24.328900 0.000322 -0.000009 3.062450 5.672340 -28.434600 -22.291500 -0.000108 -0.000004 5.125980 5.375320 -2.152450 -2.192480 -6.469440 -0.000000 -175.091000 -4.747540 -3.542470 39.081100 -0.000007 -0.000012 -0.098587 0.242939 22.087800 40.985400 -0.000006 -0.000013 -0.781455 3.906170 -65.633200 11.754300 -0.000000 0.000003 -0.000054 -0.000606 -16.601100 -2.192510 6.469440 -0.000001 -179.103000 14.680300 179.625000 -39.081100 -0.002282 -0.040193 0.012452 -0.027202 18.549600 -40.985400 0.000008 0.000006 5.573870 6.519540 -65.902900 -11.754300 -0.000006 -0.000006 -0.005881 -0.069753 -19.411800
0.000000 0.000000 0.000000 0.000000 0.000000 -0.000000 -1.710800 92.413100 -1.730800 88.057500 -0.243677 3.184670 15.735700 0.000005 -0.000001 83.217100 85.448800 -83.006500 8.984550 -0.406207 -0.000000 1.274850 -1.086480 0.432815 16.377300 -0.000001 -0.000001 3.309530 -2.786300 0.957723 6.456720 -0.000001 -0.000000 5.093660 -3.173080 -0.675820 12.994200 -0.242716 4.980390 -89.864100 -0.422556 -72.168300 5.348090 -0.000007 -0.000001 -67.488400 41.790900 -14.848800 24.328600 0.000019 0.000005 1.087690 2.530500 -23.267900 22.291600 -0.000001 0.000005 4.306030 5.510050 -6.943660 12.994500 -0.242716 -4.980390 87.929500 6.598130 -72.535000 -5.348130 -0.000001 -0.000004 -65.602500 31.635800 -15.104900 -24.328900 0.000322 -0.000009 4.127860 6.333970 -33.193400 -22.291500 -0.000108 -0.000004 5.218350 5.372840 -2.075380 -2.192480 -6.469440 -0.000000 -175.102000 -4.830630 -3.552180 39.081100 -0.000007 -0.000012 -0.097356 0.239322 22.136400 40.985400 -0.000006 -0.000013 -0.750138 3.975520 -65.651800 11.754300 -0.000000 0.000003 -0.000049 -0.000553 -16.599000 -2.192510 6.469440 -0.000001 -179.138000 14.658900 179.609000 -39.081100 -0.002282 -0.040193 0.009760 -0.019118 18.606700 -40.985400 0.000008 0.000006 5.494260 6.537740 -65.909600 -11.754300 -0.000006 -0.000006 -0.006177 -0.072431 -19.521100
0.000000 0.000000 0.000000 0.000000 0.000000 -0.000000 -1.669910 92.416000 -1.752240 88.054900 -0.414763 3.238070 15.735700 0.000005 -0.000001 82.589300 85.470600 -82.465000 8.984550 -0.406207 -0.000000 1.218710 -1.174990 0.260859 16.377300 -0.000001 -0.000001 3.381640 -2.822320 0.974532 6.456720 -0.000001 -0.000000 5.261700 -3.113700 -0.537463 12.994200 -0.242716 4.980390 -89.839400 -0.499134 -72.157600 5.348090 -0.000007 -0.000001 -67.664400 41.496300 -14.648300 24.328600 0.000019 0.000005 1.074780 2.525010 -23.065900 22.291600 -0.000001 0.000005 4.205430 5.508350 -6.873790 12.994500 -0.242716 -4.980390 87.887700 6.589600 -72.182100 -5.348130 -0.000001 -0.000004 -64.542400 27.852900 -16.927400 -24.328900 0.000322 -0.000009 5.903420 7.361770 -38.902500 -22.291500 -0.000108 -0.000004 6.193210 5.352190 -1.444900 -2.192480 -6.469440 -0.000000 -175.114000 -4.915670 -3.468590 39.081100 -0.000007 -0.000012 -0.097935 0.240967 22.118100 40.985400 -0.000006 -0.000013 -0.738895 3.917630 -65.653800 11.754300 -0.000000 0.000003 -0.000047 -0.000540 -16.598500 -2.192510 6.469440 -0.000001 -179.166000 14.479300 179.637000 -39.081100 -0.002282 -0.040193 0.010138 -0.020239 18.608400 -40.985400 0.000008 0.000006 5.424140 6.558680 -65.870400 -11.754300 -0.000006 -0.000006 -0.006119 -0.071914 -19.500000
0.000000 0.000000 0.000000 0.000000 0.000000 -0.000000 -1.624760 92.401200 -1.775370 87.992500 -0.668542 3.395960 15.735700 0.000005 -0.000001 82.158600 85.463200 -82.110000 8.984550 -0.406207 -0.000000 1.223520 -1.240120 0.110238 16.377300 -0.000001 -0.000001 3.543520 -2.873820 1.091370 6.456720 -0.000001 -0.000000 5.369150 -3.149130 -0.452906 12.994200 -0.242716 4.980390 -89.831800 -0.522471 -72.156100 5.348090 -0.000007 -0.000001 -67.632800 41.435700 -14.626500 24.328600 0.000019 0.000005 1.069760 2.554190 -22.733600 22.291600 -0.000001 0.000005 4.360370 5.508440 -6.876930 12.994500 -0.242716 -4.980390 87.921000 6.404390 -71.973200 -5.348130 -0.000001 -0.000004 -63.480500 23.225200 -19.476400 -24.328900 0.000322 -0.000009 8.525710 8.211340 -46.383800 -22.291500 -0.000108 -0.000004 7.641930 5.314540 -0.344420 -2.192480 -6.469440 -0.000000 -175.080000 -5.072740 -3.379030 39.081100 -0.000007 -0.000012 -0.097093 0.236791 22.295400 40.985400 -0.000006 -0.000013 -0.708096 3.808330 -65.746300 11.754300 -0.000000 0.000003 -0.000053 -0.000593 -16.600600 -2.192510 6.469440 -0.000001 -179.176000 14.322000 179.722000 -39.081100 -0.002282 -0.040193 0.009518 -0.018278 18.720200 -40.985400 0.000008 0.000006 5.436330 6.660760 -65.901600 -11.754300 -0.000006 -0.000006 -0.006231 -0.072920 -19.541000
0.000000 0.000000 0.000000 0.000000 0.000000 -0.000000 -1.557850 92.398100 -1.827330 87.954000 -1.001120 3.524640 15.735700 0.000005 -0.000001 82.276500 85.484200 -82.320500 8.984550 -0.406207 -0.000000 1.183520 -1.210720 -0.075514 16.377300 -0.000001 -0.000001 3.663850 -2.904180 1.293140 6.456720 -0.000001 -0.000000 5.669310 -3.232190 -0.276725 12.994200 -0.242716 4.980390 -89.803800 -0.610131 -72.171500 5.348090 -0.000007 -0.000001 -67.719000 41.234800 -14.668300 24.328600 0.000019 0.000005 1.196630 2.914720 -22.331400 22.291600 -0.000001 0.000005 4.239990 5.508510 -6.879810 12.994500 -0.242716 -4.980390 88.002900 6.104790 -71.846200 -5.348130 -0.000001 -0.000004 -62.412400 18.154200 -22.584000 -24.328900 0.000322 -0.000009 12.501100 8.519400 -56.243300 -22.291500 -0.000108 -0.000004 9.487450 5.262590 1.091320 -2.192480 -6.469440 -0.000000 -175.084000 -5.168300 -3.262210 39.081100 -0.000007 -0.000012 -0.096878 0.235441 22.365800 40.985400 -0.000006 -0.000013 -0.704096 3.581410 -65.785800 11.754300 -0.000000 0.000003 -0.000052 -0.000585 -16.600200 -2.192510 6.469440 -0.000001 -179.221000 14.201700 179.775000 -39.081100 -0.002282 -0.040193 0.008293 -0.014622 18.772000 -40.985400 0.000008 0.000006 5.337850 6.876970 -65.856200 -11.754300 -0.000006 -0.000006 -0.005945 -0.070334 -19.435500
0.000000 0.000000 0.000000 0.000000 0.000000 -0.000000 -1.475330 92.385100 -1.842790 87.908100 -1.291180 3.689000 15.735700 0.000005 -0.000001 82.859500 85.500900 -82.983700 8.984550 -0.406207 -0.000000 1.161420 -1.110850 -0.236792 16.377300 -0.000001 -0.000001 3.822630 -2.929680 1.488470 6.456720 -0.000001 -0.000000 5.893610 -3.398010 -0.079131 12.994200 -0.242716 4.980390 -89.803300 -0.607988 -72.070100 5.348090 -0.000007 -0.000001 -67.595000 41.203200 -14.868700 24.328600 0.000019 0.000005 1.229920 3.027200 -22.122900 22.291600 -0.000001 0.000005 4.247120 5.508240 -6.868870 12.994500 -0.242716 -4.980390 88.111800 5.748420 -71.781700 -5.348130 -0.000001 -0.000004 -61.632900 12.456200 -26.049200 -24.328900 0.000322 -0.000009 17.163500 6.986350 -68.497300 -22.291500 -0.000108 -0.000004 10.827800 5.203940 2.619160 -2.192480 -6.469440 -0.000000 -175.087000 -5.238960 -3.134900 39.081100 -0.000007 -0.000012 -0.096237 0.232258 22.506800 40.985400 -0.000006 -0.000013 -0.684667 3.371580 -65.874500 11.754300 -0.000000 0.000003 -0.000048 -0.000543 -16.598600 -2.192510 6.469440 -0.000001 -179.291000 14.106100 179.870000 -39.081100 -0.002282 -0.040193 0.006817 -0.010217 18.880000 -40.985400 0.000008 0.000006 5.295150 7.092260 -65.879000 -11.754300 -0.000006 -0.000006 -0.006146 -0.072152 -19.509700
0.000000 0.000000 0.000000 0.000000 0.000000 -0.000000 -1.389200 92.383700 -1.871720 87.841000 -1.456750 3.735770 15.735700 0.000005 -0.000001 83.348600 85.544500 -83.527000 8.984550 -0.406207 -0.000000 1.083660 -1.021320 -0.346775 16.377300 -0.000001 -0.000001 3.955270 -3.012130 1.688930 6.456720 -0.000001 -0.000000 6.059950 -3.504970 -0.002779 12.994200 -0.242716 4.980390 -89.818200 -0.558292 -71.958800 5.348090 -0.000007 -0.000001 -67.470000 41.019300 -14.963400 24.328600 0.000019 0.000005 1.264180 3.079190 -22.333100 22.291600 -0.000001 0.000005 4.307990 5.507380 -6.833700 12.994500 -0.242716 -4.980390 88.268000 5.219150 -71.612100 -5.348130 -0.000001 -0.000004 -61.244300 6.226190 -31.070400 -24.328900 0.000322 -0.000009 19.428800 3.667230 -79.723400 -22.291500 -0.000108 -0.000004 11.450900 5.201380 2.685420 -2.192480 -6.469440 -0.000000 -175.073000 -5.312270 -3.126360 39.081100 -0.000007 -0.000012 -0.097555 0.234401 22.596500 40.985400 -0.000006 -0.000013 -0.645202 3.263720 -65.917900 11.754300 -0.000000 0.000003 -0.000050 -0.000561 -16.599400 -2.192510 6.469440 -0.000001 -179.273000 13.978500 179.883000 -39.081100 -0.002282 -0.040193 0.009028 -0.016670 18.890600 -40.985400 0.000008 0.000006 5.334010 7.130650 -65.855300 -11.754300 -0.000006 -0.000006 -0.006173 -0.072396 -19.519600
